#!OML:ASF H:\MichaelJackson\Top Level 1\Subject 1\Session 1\male.ASF
:FULLY-SPECIFIED
:DEGREES
815
root 0.396707 12.635 26.3201 41.2258 43.2642 10.7476
lowerback 29.2164 -3.77053 7.27378
upperback 10.2932 -2.57886 -3.48494
thorax -4.90046 -0.883785 -7.28242
lowerneck -11.1779 5.56396 7.45107
upperneck -6.28267 6.69223 -20.6602
head 1.1117 3.22315 -7.25467
rclavicle -5.725e-014 3.93594e-014
rhumerus 0.771599 28.058 7.32512
rradius 109.084
rwrist -34.4692
rhand -24.2301 -37.9145
rfingers 7.12502
rthumb 2.25516 292.118
lclavicle -5.725e-014 3.93594e-014
lhumerus -41.059 17.5811 68.2751
lradius 48.5369
lwrist 25.4673
lhand -30.115 5.92437
lfingers 7.12502
lthumb -3.42853 35.8765
rfemur -101.485 -15.7355 24.5019
rtibia 98.0013
rfoot -20.7707 38.7521
rtoes 35.1591
lfemur -9.10415 -5.28732 3.42177
ltibia 20.7404
lfoot -21.362 47.148
ltoes 56.7213
816
root 0.40689 12.6758 26.366 41.2991 43.0142 10.6028
lowerback 29.2741 -3.70987 7.29287
upperback 10.3075 -2.49549 -3.47827
thorax -4.89589 -0.843665 -7.31431
lowerneck -11.2633 5.62323 7.60097
upperneck -6.40838 6.73934 -20.7707
head 1.10842 3.24724 -7.31319
rclavicle 1.11319e-014 -3.85642e-014
rhumerus 0.109723 27.9867 6.94249
rradius 109.328
rwrist -34.367
rhand -24.3445 -37.9644
rfingers 7.12502
rthumb 2.14467 292.067
lclavicle 1.11319e-014 -3.85642e-014
lhumerus -40.9483 17.4612 68.422
lradius 48.6592
lwrist 25.6527
lhand -30.1325 5.92164
lfingers 7.12502
lthumb -3.4454 35.8735
rfemur -101.151 -15.2535 24.3181
rtibia 97.664
rfoot -20.8884 38.5766
rtoes 35.3465
lfemur -9.4558 -5.00748 3.16468
ltibia 21.0376
lfoot -21.5146 47.1651
ltoes 56.817
817
root 0.417789 12.7159 26.4121 41.3812 42.7773 10.4599
lowerback 29.3241 -3.66465 7.31651
upperback 10.3228 -2.42929 -3.45437
thorax -4.88907 -0.811873 -7.32333
lowerneck -11.3429 5.69468 7.71832
upperneck -6.54152 6.80639 -20.9096
head 1.10557 3.28296 -7.37399
rclavicle 3.10104e-014 2.38542e-015
rhumerus -0.489886 27.9041 6.62855
rradius 109.57
rwrist -34.2746
rhand -24.4463 -38.0129
rfingers 7.12502
rthumb 2.0463 292.017
lclavicle 3.10104e-014 2.38542e-015
lhumerus -40.8656 17.3681 68.5833
lradius 48.788
lwrist 25.9458
lhand -30.1844 5.94975
lfingers 7.12502
lthumb -3.49558 35.9008
rfemur -100.832 -14.7921 24.1557
rtibia 97.3277
rfoot -21.0029 38.4035
rtoes 35.5269
lfemur -9.81678 -4.72262 2.91535
ltibia 21.3309
lfoot -21.6381 47.1605
ltoes 56.9096
818
root 0.429266 12.7554 26.4584 41.4755 42.5556 10.329
lowerback 29.3709 -3.63828 7.33261
upperback 10.3368 -2.38703 -3.40983
thorax -4.88571 -0.792148 -7.29611
lowerneck -11.4064 5.77991 7.79413
upperneck -6.68347 6.89658 -21.0699
head 1.10087 3.33272 -7.43309
rclavicle -2.54444e-014 7.15625e-015
rhumerus -1.00648 27.8131 6.39197
rradius 109.806
rwrist -34.2054
rhand -24.5287 -38.054
rfingers 7.12502
rthumb 1.96673 291.975
lclavicle -2.54444e-014 7.15625e-015
lhumerus -40.8188 17.3105 68.762
lradius 48.9143
lwrist 26.2693
lhand -30.3051 6.03518
lfingers 7.12502
lthumb -3.61211 35.9843
rfemur -100.527 -14.3606 24.0068
rtibia 96.9956
rfoot -21.1022 38.2431
rtoes 35.7013
lfemur -10.1841 -4.43155 2.66858
ltibia 21.6178
lfoot -21.7547 47.1356
ltoes 56.989
819
root 0.441107 12.7943 26.505 41.5749 42.3409 10.2089
lowerback 29.4225 -3.62542 7.33062
upperback 10.3497 -2.36443 -3.34795
thorax -4.88861 -0.782591 -7.23165
lowerneck -11.4576 5.87637 7.83066
upperneck -6.82669 7.00682 -21.2347
head 1.09575 3.39431 -7.48551
rclavicle -3.89618e-014 2.42517e-014
rhumerus -1.44967 27.7134 6.21424
rradius 110.033
rwrist -34.1649
rhand -24.5907 -38.1026
rfingers 7.12502
rthumb 1.90691 291.926
lclavicle -3.89618e-014 2.42517e-014
lhumerus -40.8013 17.2826 68.9559
lradius 49.0272
lwrist 26.537
lhand -30.4495 6.148
lfingers 7.12502
lthumb -3.75152 36.0947
rfemur -100.23 -13.9532 23.8641
rtibia 96.6696
rfoot -21.1835 38.0993
rtoes 35.8661
lfemur -10.5504 -4.11149 2.41886
ltibia 21.9021
lfoot -21.8865 47.0831
ltoes 57.0507
820
root 0.45308 12.8324 26.5518 41.6752 42.1316 10.0977
lowerback 29.4819 -3.6229 7.32402
upperback 10.3646 -2.35483 -3.28381
thorax -4.89503 -0.779277 -7.15748
lowerneck -11.5028 5.97746 7.8585
upperneck -6.96945 7.1243 -21.3918
head 1.0903 3.46006 -7.53341
rclavicle 2.38542e-015 1.41137e-014
rhumerus -1.8668 27.6049 6.0457
rradius 110.252
rwrist -34.1515
rhand -24.643 -38.1584
rfingers 7.12502
rthumb 1.85636 291.87
lclavicle 2.38542e-015 1.41137e-014
lhumerus -40.785 17.2543 69.154
lradius 49.1131
lwrist 26.6871
lhand -30.5982 6.27954
lfingers 7.12502
lthumb -3.89516 36.2237
rfemur -99.9427 -13.5722 23.7321
rtibia 96.351
rfoot -21.2487 37.9791
rtoes 36.0104
lfemur -10.9141 -3.73988 2.1661
ltibia 22.1863
lfoot -22.0276 46.9944
ltoes 57.0839
821
root 0.46482 12.87 26.5989 41.7741 41.9222 9.99128
lowerback 29.555 -3.62554 7.2985
upperback 10.3774 -2.35511 -3.21475
thorax -4.91136 -0.781408 -7.06317
lowerneck -11.5359 6.0808 7.87088
upperneck -7.1131 7.24628 -21.5289
head 1.08163 3.5291 -7.57197
rclavicle -9.54166e-015 4.23411e-014
rhumerus -2.25618 27.491 5.87758
rradius 110.464
rwrist -34.1579
rhand -24.6999 -38.2434
rfingers 7.12502
rthumb 1.80144 291.784
lclavicle -9.54166e-015 4.23411e-014
lhumerus -40.7772 17.2397 69.3552
lradius 49.1746
lwrist 26.6827
lhand -30.7297 6.41963
lfingers 7.12502
lthumb -4.0221 36.3614
rfemur -99.6617 -13.2069 23.6091
rtibia 96.0378
rfoot -21.3046 37.8774
rtoes 36.1316
lfemur -11.2755 -3.31591 1.90879
ltibia 22.4732
lfoot -22.1981 46.8764
ltoes 57.0985
822
root 0.476159 12.9074 26.6463 41.875 41.7115 9.88862
lowerback 29.6392 -3.62371 7.28138
upperback 10.3915 -2.34791 -3.16176
thorax -4.93074 -0.779554 -6.99472
lowerneck -11.5776 6.1751 7.91525
upperneck -7.24327 7.35314 -21.6392
head 1.07583 3.58835 -7.60818
rclavicle -1.59028e-014 -3.77691e-015
rhumerus -2.70863 27.3757 5.6422
rradius 110.674
rwrist -34.1641
rhand -24.7822 -38.3837
rfingers 7.12502
rthumb 1.72196 291.644
lclavicle -1.59028e-014 -3.77691e-015
lhumerus -40.7365 17.1823 69.5499
lradius 49.2088
lwrist 26.5359
lhand -30.8266 6.55282
lfingers 7.12502
lthumb -4.11566 36.4928
rfemur -99.3857 -12.8486 23.4907
rtibia 95.7268
rfoot -21.3623 37.7816
rtoes 36.2319
lfemur -11.6424 -2.84572 1.64618
ltibia 22.7651
lfoot -22.3752 46.7393
ltoes 57.0908
823
root 0.487062 12.9448 26.6941 41.976 41.4973 9.78662
lowerback 29.7361 -3.61709 7.26443
upperback 10.4063 -2.33465 -3.12088
thorax -4.95447 -0.774655 -6.94231
lowerneck -11.6233 6.26078 7.98036
upperneck -7.37081 7.44544 -21.7226
head 1.06857 3.63924 -7.64033
rclavicle 7.71285e-014 -1.98785e-014
rhumerus -3.2111 27.2584 5.34192
rradius 110.881
rwrist -34.1574
rhand -24.8966 -38.5659
rfingers 7.12502
rthumb 1.61145 291.46
lclavicle 7.71285e-014 -1.98785e-014
lhumerus -40.6688 17.1043 69.7378
lradius 49.2258
lwrist 26.2943
lhand -30.8706 6.6567
lfingers 7.12502
lthumb -4.15816 36.5959
rfemur -99.1118 -12.4919 23.3792
rtibia 95.4154
rfoot -21.4183 37.6888
rtoes 36.3341
lfemur -12.0157 -2.33602 1.37822
ltibia 23.0626
lfoot -22.5369 46.5888
ltoes 57.0719
824
root 0.497509 12.9824 26.7423 42.0862 41.2806 9.68759
lowerback 29.8387 -3.60122 7.25011
upperback 10.4199 -2.30973 -3.09091
thorax -4.98043 -0.764105 -6.90794
lowerneck -11.6748 6.33486 8.07459
upperneck -7.4937 7.51852 -21.791
head 1.06113 3.679 -7.67405
rclavicle 4.21423e-014 9.54166e-014
rhumerus -3.78168 27.146 4.97853
rradius 111.088
rwrist -34.1251
rhand -25.0477 -38.7662
rfingers 7.12502
rthumb 1.46549 291.259
lclavicle 4.21423e-014 9.54166e-014
lhumerus -40.574 16.9965 69.9214
lradius 49.2401
lwrist 26.0331
lhand -30.86 6.72604
lfingers 7.12502
lthumb -4.14791 36.6654
rfemur -98.8454 -12.1352 23.2742
rtibia 95.1006
rfoot -21.4664 37.5981
rtoes 36.4634
lfemur -12.4041 -1.80707 1.10474
ltibia 23.3641
lfoot -22.6777 46.4367
ltoes 57.0548
825
root 0.508044 13.0202 26.7909 42.2092 41.0683 9.59727
lowerback 29.9446 -3.58219 7.24649
upperback 10.433 -2.2783 -3.06747
thorax -5.00772 -0.750249 -6.88962
lowerneck -11.7339 6.39988 8.19085
upperneck -7.61443 7.57653 -21.8585
head 1.0543 3.71006 -7.71235
rclavicle -1.82882e-014 -1.96797e-014
rhumerus -4.40764 27.04 4.56926
rradius 111.291
rwrist -34.0616
rhand -25.2281 -38.9625
rfingers 7.12502
rthumb 1.29126 291.062
lclavicle -1.82882e-014 -1.96797e-014
lhumerus -40.4556 16.873 70.1056
lradius 49.2607
lwrist 25.8197
lhand -30.8171 6.75957
lfingers 7.12502
lthumb -4.10648 36.6997
rfemur -98.5841 -11.7887 23.1734
rtibia 94.7801
rfoot -21.5011 37.5137
rtoes 36.6347
lfemur -12.8126 -1.28454 0.824692
ltibia 23.6709
lfoot -22.7958 46.2945
ltoes 57.0436
